<?xml version="1.0" encoding="UTF-8" standalone="no"?>
<!-- Created with Inkscape (http://www.inkscape.org/) -->

<svg
   width="81.656342mm"
   height="22.422754mm"
   viewBox="0 0 81.656342 22.422754"
   version="1.1"
   id="svg1"
   inkscape:export-filename="P1WIN.svg"
   inkscape:export-xdpi="96"
   inkscape:export-ydpi="96"
   sodipodi:docname="P1WIN.svg"
   xmlns:inkscape="http://www.inkscape.org/namespaces/inkscape"
   xmlns:sodipodi="http://sodipodi.sourceforge.net/DTD/sodipodi-0.dtd"
   xmlns="http://www.w3.org/2000/svg"
   xmlns:svg="http://www.w3.org/2000/svg">
  <sodipodi:namedview
     id="namedview1"
     pagecolor="#ffffff"
     bordercolor="#000000"
     borderopacity="0.25"
     inkscape:showpageshadow="2"
     inkscape:pageopacity="0.0"
     inkscape:pagecheckerboard="0"
     inkscape:deskcolor="#d1d1d1"
     inkscape:document-units="mm"
     inkscape:export-bgcolor="#ffffffff" />
  <defs
     id="defs1" />
  <path
     d="M 0.74999997,1.1716798 H 6.0085936 q 2.1332031,0 3.2742187,0.334863 1.1534177,0.334863 1.7239257,0.967383 0.582911,0.632519 0.781348,1.53789 0.21084,0.892969 0.21084,2.778125 v 1.748731 q 0,1.9223632 -0.396875,2.8029292 -0.396875,0.880567 -1.463477,1.351856 -1.0541992,0.471289 -2.7657226,0.471289 H 5.9713866 v 8.086328 H 0.74999997 Z m 5.22138663,3.435449 v 5.109765 q 0.2232422,0.0124 0.3844726,0.0124 0.719336,0 0.9921875,-0.347266 0.2852539,-0.359665 0.2852539,-1.475876 v -1.649511 q 0,-1.029395 -0.3224609,-1.339454 Q 6.9883788,4.6071288 5.9713866,4.6071288 Z M 21.077441,1.1716798 V 21.251074 H 16.066894 V 10.48584 q 0,-2.3316412 -0.111621,-2.8029302 -0.111621,-0.471289 -0.620117,-0.706933 -0.496094,-0.248047 -2.232422,-0.248047 h -0.496093 v -2.344043 q 3.633886,-0.781348 5.519042,-3.212207 z m 26.218554,0 -2.319238,20.0793942 H 38.453124 Q 37.560155,16.625 36.878026,10.733887 36.567968,13.251562 35.426952,21.251074 H 28.940527 L 26.608886,1.1716798 h 5.072558 l 0.533301,7.007324 0.545703,6.7592772 Q 33.045702,9.6920898 34.19912,1.1716798 h 5.432227 q 0.111621,0.880566 0.570507,6.622851 l 0.570508,7.6274412 Q 41.206444,8.1417968 42.223436,1.1716798 Z m 6.263183,0 V 21.251074 H 48.337792 V 1.1716798 Z m 13.7542,0 V 21.251074 H 62.736913 L 60.0208,12.122949 v 9.128125 H 55.655175 V 1.1716798 H 60.0208 l 2.926953,9.0413082 V 1.1716798 Z m 13.158883,6.077148 h -4.849316 v -1.488281 q 0,-1.041797 -0.186035,-1.327051 -0.186035,-0.285254 -0.620117,-0.285254 -0.471289,0 -0.719336,0.384473 -0.235645,0.384472 -0.235645,1.16582 0,1.00459 0.272852,1.513086 0.260449,0.508496 1.475879,1.227832 3.485058,2.0711912 4.390429,3.3982422 0.905371,1.327051 0.905371,4.278809 0,2.145605 -0.508496,3.162597 -0.496094,1.016992 -1.934765,1.711523 -1.438672,0.682129 -3.348633,0.682129 -2.095996,0 -3.584277,-0.79375 -1.475879,-0.79375 -1.934766,-2.021581 -0.458887,-1.227832 -0.458887,-3.485059 v -1.314648 h 4.849317 v 2.443261 q 0,1.128614 0.198437,1.451075 0.21084,0.32246 0.731738,0.32246 0.520899,0 0.768946,-0.409277 0.260449,-0.409277 0.260449,-1.21543 0,-1.773535 -0.483692,-2.319238 -0.496093,-0.545703 -2.443261,-1.823144 -1.947168,-1.289844 -2.579688,-1.872754 -0.632519,-0.58291 -1.054199,-1.6123052 -0.409277,-1.029394 -0.409277,-2.629297 0,-2.306836 0.58291,-3.373437 0.595312,-1.066602 1.909961,-1.661914 1.314648,-0.60771505 3.175,-0.60771505 2.033984,0 3.460254,0.65732405 1.438671,0.657324 1.897558,1.661914 0.471289,0.992188 0.471289,3.38584 z"
     id="text1"
     style="font-size:25.4px;line-height:1;font-family:Impact;-inkscape-font-specification:Impact;fill-rule:evenodd;stroke:#ffffff;stroke-width:1.5;stroke-linecap:round;stroke-linejoin:round;paint-order:fill markers stroke"
     aria-label="P1 WINS" />
</svg>
