<?xml version="1.0" encoding="UTF-8" standalone="no"?>
<!-- Created with Inkscape (http://www.inkscape.org/) -->

<svg
   width="84.732124mm"
   height="22.422754mm"
   viewBox="0 0 84.732125 22.422754"
   version="1.1"
   id="svg1"
   inkscape:export-filename="P1WIN.svg"
   inkscape:export-xdpi="96"
   inkscape:export-ydpi="96"
   sodipodi:docname="P1WIN.svg"
   xmlns:inkscape="http://www.inkscape.org/namespaces/inkscape"
   xmlns:sodipodi="http://sodipodi.sourceforge.net/DTD/sodipodi-0.dtd"
   xmlns="http://www.w3.org/2000/svg"
   xmlns:svg="http://www.w3.org/2000/svg">
  <sodipodi:namedview
     id="namedview1"
     pagecolor="#ffffff"
     bordercolor="#000000"
     borderopacity="0.25"
     inkscape:showpageshadow="2"
     inkscape:pageopacity="0.0"
     inkscape:pagecheckerboard="0"
     inkscape:deskcolor="#d1d1d1"
     inkscape:document-units="mm"
     inkscape:export-bgcolor="#ffffffff" />
  <defs
     id="defs1" />
  <path
     d="M 0.74999997,1.1716798 H 6.0085936 q 2.1332031,0 3.2742187,0.334863 1.1534177,0.334863 1.7239257,0.967383 0.582911,0.632519 0.781348,1.53789 0.21084,0.892969 0.21084,2.778125 v 1.748731 q 0,1.9223632 -0.396875,2.8029292 -0.396875,0.880567 -1.463477,1.351856 -1.0541992,0.471289 -2.7657226,0.471289 H 5.9713866 v 8.086328 H 0.74999997 Z m 5.22138663,3.435449 v 5.109765 q 0.2232422,0.0124 0.3844726,0.0124 0.719336,0 0.9921875,-0.347266 0.2852539,-0.359665 0.2852539,-1.475876 v -1.649511 q 0,-1.029395 -0.3224609,-1.339454 Q 6.9883788,4.6071288 5.9713866,4.6071288 Z M 24.153222,17.828027 v 3.423047 H 13.127539 v -2.864941 q 4.898926,-8.011914 5.816699,-9.9094732 0.930176,-1.909961 0.930176,-2.976562 0,-0.818555 -0.285254,-1.21543 -0.272852,-0.409277 -0.843359,-0.409277 -0.570508,0 -0.855762,0.446484 -0.272852,0.446484 -0.272852,1.773535 v 1.909961 h -4.489648 v -0.731738 q 0,-1.686719 0.173633,-2.654102 0.173633,-0.979785 0.855762,-1.922363 0.682128,-0.942578 1.773535,-1.42627 1.091406,-0.48369105 2.616894,-0.48369105 2.988965,0 4.514453,1.48828105 1.537891,1.475879 1.537891,3.745508 0,1.723926 -0.868164,3.646289 -0.855762,1.9223632 -5.072559,8.1607422 z M 50.371776,1.1716798 48.052538,21.251074 H 41.528905 Q 40.635936,16.625 39.953807,10.733887 39.643749,13.251562 38.502733,21.251074 H 32.016307 L 29.684667,1.1716798 h 5.072558 l 0.533301,7.007324 0.545703,6.7592772 Q 36.121483,9.6920898 37.274901,1.1716798 h 5.432227 q 0.111621,0.880566 0.570507,6.622851 l 0.570508,7.6274412 Q 44.282225,8.1417968 45.299217,1.1716798 Z m 6.263185,0 V 21.251074 H 51.413575 V 1.1716798 Z m 13.754199,0 V 21.251074 h -4.576464 l -2.716114,-9.128125 v 9.128125 H 58.730957 V 1.1716798 h 4.365625 l 2.926953,9.0413082 V 1.1716798 Z m 13.158884,6.077148 h -4.849316 v -1.488281 q 0,-1.041797 -0.186035,-1.327051 -0.186036,-0.285254 -0.620118,-0.285254 -0.471289,0 -0.719336,0.384473 -0.235644,0.384472 -0.235644,1.16582 0,1.00459 0.272851,1.513086 0.26045,0.508496 1.475879,1.227832 3.485059,2.0711912 4.39043,3.3982422 0.905371,1.327051 0.905371,4.278809 0,2.145605 -0.508496,3.162597 -0.496094,1.016992 -1.934766,1.711523 -1.438672,0.682129 -3.348632,0.682129 -2.095996,0 -3.584278,-0.79375 -1.475879,-0.79375 -1.934765,-2.021581 -0.458887,-1.227832 -0.458887,-3.485059 v -1.314648 h 4.849316 v 2.443261 q 0,1.128614 0.198438,1.451075 0.21084,0.32246 0.731738,0.32246 0.520899,0 0.768945,-0.409277 0.26045,-0.409277 0.26045,-1.21543 0,-1.773535 -0.483692,-2.319238 -0.496094,-0.545703 -2.443261,-1.823144 -1.947168,-1.289844 -2.579688,-1.872754 -0.632519,-0.58291 -1.054199,-1.6123052 -0.409277,-1.029394 -0.409277,-2.629297 0,-2.306836 0.58291,-3.373437 0.595312,-1.066602 1.909961,-1.661914 1.314648,-0.60771505 3.175,-0.60771505 2.033984,0 3.460253,0.65732405 1.438672,0.657324 1.897559,1.661914 0.471289,0.992188 0.471289,3.38584 z"
     id="text1"
     style="font-size:25.4px;line-height:1;font-family:Impact;-inkscape-font-specification:Impact;fill-rule:evenodd;stroke:#ffffff;stroke-width:1.5;stroke-linecap:round;stroke-linejoin:round;paint-order:fill markers stroke"
     aria-label="P2 WINS" />
</svg>
